<?xml version="1.0" encoding="utf-8"?>
<!-- Generator: Adobe Illustrator 20.0.0, SVG Export Plug-In . SVG Version: 6.00 Build 0)  -->
<svg version="1.1" id="Layer_1" xmlns="http://www.w3.org/2000/svg" xmlns:xlink="http://www.w3.org/1999/xlink" x="0px" y="0px"
	 viewBox="0 0 540.8 248.2" style="enable-background:new 0 0 540.8 248.2;" xml:space="preserve">
<style type="text/css">
	.st0{fill:#FFFFFF;}
	.st1{fill:#FF0000;}
	.st2{fill:#49B3E6;}
	.st3{fill:#231F20;}
</style>
<title>Electionland logo</title>
<path class="st0" d="M0,181.1h43.1v11.7H14.9v15.5h22.6v10.9H14.9v16.5h29.7v11.7H0V181.1z"/>
<path class="st0" d="M54.2,176.9h13.3v70.3H54.2V176.9z"/>
<path class="st0" d="M76.8,223.6v-0.7c0-15.3,10.8-25.2,24.9-25.2c12.5,0,23.6,7.3,23.6,24.6v3.7H90.4c0.4,8.1,4.7,12.7,12,12.7
	c6.2,0,9.3-2.7,10.1-6.8h12.7c-1.6,10.5-9.9,16.3-23.1,16.3C87.5,248.2,76.8,239.1,76.8,223.6z M112.3,217.8
	c-0.5-7.3-4.2-10.8-10.6-10.8c-6,0-10.1,4-11.1,10.8C90.6,217.8,112.3,217.8,112.3,217.8z"/>
<path class="st0" d="M131.1,223.6v-0.7c0-15.6,11.2-25.2,25-25.2c11.2,0,21.6,4.9,22.8,18.8h-12.7c-0.9-5.6-4.4-8.2-9.8-8.2
	c-6.9,0-11.6,5.2-11.6,14.4v0.7c0,9.7,4.4,14.7,11.8,14.7c5.4,0,9.7-3.1,10.4-9.3h12.1c-0.7,11.5-9.1,19.4-23.1,19.4
	C141.9,248.2,131.1,239.5,131.1,223.6z"/>
<path class="st0" d="M189.6,232.9v-24.5h-6.2v-9.5h6.2v-10.5H203v10.5h10.2v9.5H203v23.3c0,3.9,1.9,5.7,5.4,5.7
	c1.7,0.1,3.5-0.3,5.1-0.9v10.4c-2.6,0.9-5.4,1.3-8.1,1.3C195.1,248.2,189.6,243,189.6,232.9z"/>
<path class="st0" d="M221.8,184.9c-0.2-4.2,3.1-7.8,7.3-8c4.2-0.2,7.8,3.1,8,7.3c0.2,4.2-3.1,7.8-7.3,8c-0.1,0-0.3,0-0.4,0
	c-4,0.1-7.4-3-7.6-7.1C221.8,185.1,221.8,185,221.8,184.9z M222.9,198.8h13.3v48.4h-13.3V198.8L222.9,198.8z"/>
<path class="st0" d="M243.7,223.5v-0.7c0-15.2,11-25.1,25.5-25.1s25.5,9.7,25.5,24.8v0.7c0,15.3-11,25-25.5,25
	C254.7,248.2,243.7,238.6,243.7,223.5z M281.1,223.3v-0.6c0-9.3-4.4-14.8-11.8-14.8c-7.4,0-11.8,5.4-11.8,14.6v0.7
	c0,9.3,4.3,14.8,11.8,14.8C276.7,238.1,281.1,232.5,281.1,223.3L281.1,223.3z"/>
<path class="st0" d="M301.8,198.8h13.4v7.7c2.4-4.8,7.7-8.8,15.7-8.8c9.5,0,16.3,5.7,16.3,18.7v30.8h-13.4v-28.9
	c0-6.6-2.6-9.7-8.5-9.7c-5.7,0-10.1,3.5-10.1,10.6v28h-13.4V198.8z"/>
<path class="st0" d="M359.1,176.9h13.3v70.3h-13.3V176.9z"/>
<path class="st0" d="M381.5,233.8c0-11.3,10.4-15.6,25.2-15.6h5.5v-1.9c0-5.7-1.8-8.9-7.9-8.9c-5.3,0-7.7,2.7-8.2,6.9h-12.7
	c0.8-11.5,9.9-16.6,21.8-16.6s20.3,4.8,20.3,18v31.6h-13.1v-5.8c-2.8,3.9-7,6.9-14.6,6.9C388.9,248.2,381.5,244,381.5,233.8z
	 M412.1,230.3v-4.1H407c-7.8,0-12.3,1.7-12.3,6.8c0,3.5,2.1,5.8,7,5.8C407.6,238.9,412.1,235.7,412.1,230.3L412.1,230.3z"/>
<path class="st0" d="M436.8,198.8h13.4v7.7c2.4-4.8,7.7-8.8,15.7-8.8c9.5,0,16.3,5.7,16.3,18.7v30.8h-13.4v-28.9
	c0-6.6-2.6-9.7-8.5-9.7c-5.7,0-10.1,3.5-10.1,10.6v28h-13.4V198.8z"/>
<path class="st0" d="M490.9,223.7V223c0-15.9,9.2-25.3,21.3-25.3c7.8,0,12.6,3.4,15.3,8.3v-29.2h13.3v70.3h-13.3v-8.1
	c-3.1,5.6-9.1,9.1-15.5,9.1C500.1,248.2,490.9,239.8,490.9,223.7z M527.8,223.3v-0.7c0-9.6-4.3-14.5-11.6-14.5
	c-7.5,0-11.7,5.1-11.7,14.7v0.7c0,9.6,4.6,14.3,11.3,14.3C522.9,237.8,527.8,233.1,527.8,223.3L527.8,223.3z"/>
<polygon class="st1" points="239,146.1 362.6,146.1 362.6,122.7 250.8,122.7 "/>
<rect x="262.7" y="78.1" class="st1" width="79.8" height="23.4"/>
<rect x="262.7" y="33.5" class="st1" width="99.9" height="23.4"/>
<path class="st2" d="M157.1,112.4V0h112.4v112.4H157.1z"/>
<polygon class="st3" points="269.6,112.4 239,146.1 242.8,112.4 "/>
<path class="st0" d="M203.6,70.9l-8.7-16.1h-18.4l15.7,28.7c0.4,0.8,1.3,1.3,2.2,1.3h17.7c0.9,0,1.7-0.4,2.1-1.2L250.1,28h-18.9
	L203.6,70.9z"/>
</svg>
