<?xml version="1.0" encoding="utf-8"?>
<!-- Generator: Adobe Illustrator 20.0.0, SVG Export Plug-In . SVG Version: 6.00 Build 0)  -->
<svg version="1.1" id="Capa_1" xmlns="http://www.w3.org/2000/svg" xmlns:xlink="http://www.w3.org/1999/xlink" x="0px" y="0px"
	 viewBox="0 0 46 46" style="enable-background:new 0 0 46 46;" xml:space="preserve">
<g>
	<g>
		<path d="M37.4,0H8.6C6.2,0,4.2,0.8,2.5,2.5C0.8,4.2,0,6.2,0,8.6v28.7c0,2.4,0.8,4.4,2.5,6.1C4.2,45.2,6.2,46,8.6,46h28.7
			c2.4,0,4.4-0.8,6.1-2.5c1.7-1.7,2.5-3.7,2.5-6.1V8.6c0-2.4-0.8-4.4-2.5-6.1C41.8,0.8,39.7,0,37.4,0z M19,27.5
			c-1.2,1.2-2.7,1.9-4.5,1.9c-1.8,0-3.3-0.6-4.5-1.9c-1.2-1.2-1.9-2.7-1.9-4.5c0-1.8,0.6-3.3,1.9-4.5c1.2-1.2,2.7-1.9,4.5-1.9
			c1.8,0,3.3,0.6,4.5,1.9c1.2,1.2,1.9,2.7,1.9,4.5C20.9,24.8,20.3,26.3,19,27.5z M35.9,27.5c-1.2,1.2-2.7,1.9-4.5,1.9
			c-1.8,0-3.3-0.6-4.5-1.9c-1.2-1.2-1.9-2.7-1.9-4.5c0-1.8,0.6-3.3,1.9-4.5c1.2-1.2,2.7-1.9,4.5-1.9c1.8,0,3.3,0.6,4.5,1.9
			c1.2,1.2,1.9,2.7,1.9,4.5C37.8,24.8,37.2,26.3,35.9,27.5z"/>
	</g>
</g>
</svg>
