<?xml version="1.0" encoding="utf-8"?>
<!-- Generator: Adobe Illustrator 20.0.0, SVG Export Plug-In . SVG Version: 6.00 Build 0)  -->
<svg version="1.1" id="Layer_1" xmlns="http://www.w3.org/2000/svg" xmlns:xlink="http://www.w3.org/1999/xlink" x="0px" y="0px"
	 viewBox="0 0 49.1 39.9" style="enable-background:new 0 0 49.1 39.9;" xml:space="preserve">
<style type="text/css">
	.st0{fill:#36778D;}
</style>
<g id="layer1" transform="translate(-539.17946,-568.85777)">
	<path id="path3611" class="st0" d="M554.7,608.8c18.5,0,28.6-15.3,28.6-28.6c0-0.4,0-0.9,0-1.3c2-1.4,3.7-3.2,5-5.2
		c-1.8,0.8-3.7,1.3-5.8,1.6c2.1-1.2,3.7-3.2,4.4-5.6c-1.9,1.2-4.1,2-6.4,2.4c-1.8-2-4.4-3.2-7.3-3.2c-5.6,0-10.1,4.5-10.1,10
		c0,0.8,0.1,1.6,0.3,2.3c-8.4-0.4-15.8-4.4-20.7-10.5c-0.9,1.5-1.4,3.2-1.4,5.1c0,3.5,1.8,6.6,4.5,8.4c-1.6-0.1-3.2-0.5-4.6-1.3v0.1
		c0,4.9,3.5,8.9,8.1,9.9c-0.8,0.2-1.7,0.4-2.7,0.4c-0.6,0-1.3-0.1-1.9-0.2c1.3,4,5,6.9,9.4,7c-3.4,2.7-7.8,4.3-12.5,4.3
		c-0.8,0-1.6,0-2.4-0.1C543.7,607.1,549,608.8,554.7,608.8"/>
</g>
</svg>
